<?xml version="1.0" encoding="UTF-8"?>
<!DOCTYPE svg PUBLIC "-//W3C//DTD SVG 1.1//EN" "http://www.w3.org/Graphics/SVG/1.1/DTD/svg11.dtd">
<!-- Creator: CorelDRAW X8 -->
<svg xmlns="http://www.w3.org/2000/svg" xml:space="preserve" width="60.843mm" height="61.571mm" version="1.1" style="shape-rendering:geometricPrecision; text-rendering:geometricPrecision; image-rendering:optimizeQuality; fill-rule:evenodd; clip-rule:evenodd"
viewBox="0 0 5562 5628"
 xmlns:xlink="http://www.w3.org/1999/xlink">
 <defs>
  <style type="text/css">
   <![CDATA[
    .fil0 {fill:none}
    .fil1 {fill:#803031;fill-rule:nonzero}
    .fil2 {fill:#A19896;fill-rule:nonzero}
   ]]>
  </style>
 </defs>
 <g id="Camada_x0020_1">
  <metadata id="CorelCorpID_0Corel-Layer"/>
  <g id="_1046737296">
   <rect class="fil0" width="5562" height="5628"/>
   <g>
    <path class="fil1" d="M4601 212l-1583 0c-131,0 -237,106 -237,237 0,-131 -106,-237 -237,-237l-1738 0 0 202 156 0c141,0 261,91 303,218l1028 2786 3 0 0 -941c0,0 6,-85 -29,-119l0 -14c0,0 0,-1 0,-1 -7,-9 -17,-20 -23,-31 -7,-12 -9,-26 1,-39 0,-3 0,-10 0,-10 0,0 -57,-38 -77,-67 -3,-5 -5,-10 -6,-14 -3,-9 0,-25 0,-25 5,-7 24,-23 24,-23l0 -5 -4 -4 -1 -2 0 0c-4,-4 -6,-11 -6,-17 0,-6 2,-12 5,-17l6 -5 12 -12 0 -39 17 -15 0 -220 -23 -28c0,0 -14,-1 -14,-12 -10,-8 -23,-23 -30,-31 0,0 -1,-1 -1,-2 -1,-1 -2,-1 -2,-1l0 -21 47 -45 33 -36 0 -33 11 -14 0 -111 -13 -15 0 -25 8 -8 0 -26 -8 -14 23 -22c-1,-3 -1,-6 -1,-9 0,-22 21,-40 48,-40 26,0 48,18 48,40 0,3 -1,6 -2,9l2 0 0 15 20 39 0 18 16 -14 28 8 0 -11 -2 -3 -6 -6 -3 -3 35 -32 32 7 0 -14 -3 -2 -7 -5 -3 -3 37 -35 32 9 0 -17 -1 -1 -7 -6 -4 -2 39 -36 16 6 0 -96 -12 -16 0 -20 12 -18 0 -36 9 -9c-1,-4 -2,-9 -2,-13 0,-26 23,-46 52,-46 29,0 53,20 53,46 0,4 -1,9 -2,13l10 4 0 25 -1 2 -2 2 0 13 8 3 0 22 -1 12 -4 24 -1 7 -5 0 0 31 38 10 0 9 -9 6 -1 1 0 55 44 11 0 -45 -6 -6 15 -19 74 19 0 5 -3 3 -8 7 0 0 0 56 41 11 0 -41 -5 -9 0 -6 18 -14 68 18 0 5 -4 3 -8 6 -2 2 0 53 42 12 0 -42 -6 -7 0 -7 19 -14 70 19 0 5 -2 2 -4 8 -6 11 0 43 38 11 0 -35 -7 -13 0 -7 21 -15 65 18 0 6 -2 1 -8 7 -2 1 0 55 38 10 0 -40 -8 -9 0 -5 18 -17 12 4 0 -22 -5 -7 -2 -17 5 -8 -2 -29 7 -10c0,0 6,-2 10,-3 0,-3 -1,-7 -1,-10 0,-24 23,-43 51,-43 27,0 50,19 50,43 0,4 -1,8 -2,11 0,0 0,0 0,1l12 18 -4 6 -6 7 0 8 19 25 0 20 -5 6 -8 8 -6 7 0 92 19 28 0 21 56 63 20 45 0 25 -32 24 -1 1c0,0 0,1 0,2 0,2 0,5 -2,9 0,0 -1,1 -1,2 -2,4 -6,6 -11,7 0,2 -2,8 -8,10 -1,4 -2,9 -8,9l-1 0 0 191 6 3 11 26 1 26c0,0 32,85 36,93 1,4 3,8 4,12 1,1 1,2 1,2 0,1 0,2 0,4 1,3 1,6 1,10 1,3 1,6 1,9 -2,30 -26,44 -61,62 -7,6 -16,13 -18,18 0,1 0,2 0,2 0,0 0,0 0,0l0 1c0,0 0,0 1,0 2,5 6,15 0,30 0,1 0,2 -1,3 -4,11 -13,23 -28,38 0,0 0,1 -1,1 0,1 0,1 -1,1 -15,18 -33,69 -33,151l0 1028 1 0 1028 -2786c43,-127 162,-218 303,-218l157 0 0 -202 -155 0z"/>
    <path class="fil2" d="M2267 2300c-10,-1 -16,3 -22,9 -1,1 -1,2 -1,3 6,11 16,21 23,31 3,-4 7,-16 8,-27 0,-1 0,-3 0,-4 0,-1 0,-2 0,-3 0,-6 -2,-7 -8,-9z"/>
    <path class="fil2" d="M2842 2297c0,-1 0,-1 -1,-1l-44 -8c-1,0 -1,0 -1,0 -1,0 -1,1 -1,1l0 110c0,0 1,1 1,1l42 8c0,0 0,0 0,0l0 0c1,0 2,-1 2,-2 0,0 0,0 0,0 -5,-13 -9,-26 -10,-40 -2,-24 2,-47 12,-68 0,0 0,-1 0,-1z"/>
    <path class="fil2" d="M3079 2451c1,1 1,1 1,1l63 12c0,0 0,0 0,0 0,0 1,0 1,0 0,-1 0,-1 0,-1l0 -110c0,0 0,-1 -1,-1l-46 -9c-1,0 -1,0 -2,0 0,1 0,1 0,2 2,8 4,16 4,24 3,29 -4,58 -20,81 0,0 0,1 0,1z"/>
    <path class="fil2" d="M2946 2041l-20 28c-1,1 -1,2 -1,3 1,1 2,1 3,2l13 2c0,0 0,0 0,0 1,0 1,0 1,0l23 -8 43 7c1,0 1,0 2,0l22 -15c1,-1 1,-2 1,-3 0,-1 -1,-2 -2,-2l-82 -16c-2,0 -3,1 -3,2z"/>
    <path class="fil2" d="M2988 2042c0,0 1,0 1,0 2,0 4,-2 4,-4 1,-2 -1,-4 -3,-5l-32 -5c-2,-1 -4,1 -5,3 0,2 1,5 4,5l31 6z"/>
    <path class="fil2" d="M3348 2145c35,-18 59,-32 61,-62 0,-6 -1,-12 -2,-17 0,-1 0,-2 0,-3 -1,-1 -1,-1 -1,-2 -12,-6 -24,-11 -38,-16 -24,-7 -49,-11 -74,-11 -38,0 -73,9 -98,27 -2,1 -2,2 -1,4 16,33 42,64 84,100 0,1 1,1 2,1 0,0 0,0 0,0 7,-2 14,-3 22,-3 9,0 18,2 27,5 0,-1 0,-2 0,-2 0,0 0,0 0,-1 0,0 0,0 0,0 0,-1 0,-1 0,-2 2,-5 11,-12 18,-18z"/>
    <path class="fil2" d="M2930 2405l0 0 -46 4c-1,0 -3,1 -3,3 0,1 1,3 3,3l60 11c1,0 1,0 1,0 1,0 2,-1 2,-1 1,-2 1,-3 0,-4l-15 -15c-1,0 -1,-1 -2,-1z"/>
    <path class="fil2" d="M2986 2416c0,-1 -1,-1 -1,-1 0,0 -1,1 -1,1l-10 9c-1,1 -1,2 -1,3 0,1 1,2 2,2l62 12c0,0 1,0 1,0 1,0 2,0 2,-2 0,-1 0,-3 -2,-3l-52 -21z"/>
    <path class="fil2" d="M2608 2086c-11,0 -21,3 -29,8 -1,1 -1,2 -1,3 5,11 14,24 23,33 0,1 0,1 1,1l0 0c7,-4 24,-1 24,-1 1,0 1,0 1,0 10,-10 16,-20 20,-30 0,-1 0,-2 -1,-2 -11,-8 -24,-12 -38,-12z"/>
    <path class="fil2" d="M2210 2086c-8,2 -13,11 -11,19 2,7 8,12 15,12 2,0 3,0 4,-1 22,-6 51,-12 89,-9 4,1 9,-1 12,-3l174 -141c7,-6 8,-16 3,-22 -6,-7 -16,-8 -23,-3l-169 137c-41,-2 -71,4 -94,11z"/>
    <path class="fil2" d="M2614 1833c0,7 5,12 11,12 34,0 66,8 89,23 2,1 5,2 7,2 3,0 7,-2 9,-5 4,-6 2,-13 -3,-16 -28,-18 -64,-27 -102,-27 -6,0 -11,5 -11,11z"/>
    <path class="fil2" d="M2325 2163c-14,-4 -30,-5 -46,-5 -49,0 -91,15 -111,38 20,29 77,67 77,67 6,-3 14,-4 22,-4 8,0 17,1 23,4 16,-34 33,-71 35,-100z"/>
    <path class="fil2" d="M2803 1742c2,6 3,11 2,17 0,1 1,2 3,3l13 3c0,0 1,0 1,0 1,0 2,0 2,-1l27 -43 22 6c0,0 0,0 0,0 2,0 4,-1 5,-3 0,-2 -1,-5 -3,-5l-156 -42c-2,0 -5,1 -5,3 -1,3 0,5 3,5l47 13c20,9 34,26 39,44z"/>
    <path class="fil2" d="M2753 1670c0,0 -1,0 -1,0l-39 -10c-2,0 -4,2 -4,4 -1,3 1,6 4,7l166 44c1,1 1,1 2,1 2,0 5,-2 5,-5 1,-3 -1,-6 -4,-7l-38 -10c1,-7 0,-14 -2,-22 -10,-28 -39,-51 -66,-51 -21,0 -34,14 -34,34l13 4c3,0 5,4 4,7 -1,2 -3,4 -6,4z"/>
    <path class="fil2" d="M2906 1727c-3,-1 -5,1 -6,3 0,2 1,5 3,5l33 9c21,9 34,26 40,44 2,6 2,11 2,17 0,1 1,2 2,3l14 3c0,0 0,0 0,0 1,0 2,0 3,-1l27 -43 23 6c0,0 1,0 1,0 2,0 4,-1 4,-3 1,-2 -1,-4 -3,-5l-143 -38z"/>
    <path class="fil2" d="M2926 1716c-1,0 -1,0 -2,0l-26 -8c-2,1 -4,2 -5,4 -1,4 1,7 4,8l157 42c0,0 1,0 1,0 3,0 5,-2 6,-4 1,-4 -1,-7 -4,-7l-40 -11c1,-7 0,-14 -3,-22 -9,-28 -38,-51 -65,-51 -21,0 -34,14 -34,34l12 4c3,0 5,4 4,7 0,2 -3,4 -5,4z"/>
    <path class="fil2" d="M3215 1810l-137 -37c-2,0 -4,1 -5,3 0,2 1,5 3,5l32 9c20,9 34,26 39,44 2,6 3,11 3,17 -1,1 0,2 2,3l13 3c1,0 1,0 1,0 1,0 2,0 2,-1l28 -43 17 5c0,0 1,0 1,0 2,0 4,-1 4,-3 1,-2 -1,-5 -3,-5z"/>
    <path class="fil2" d="M3097 1762c0,0 -1,0 -1,0l-24 -7c-2,1 -4,2 -4,4 -1,3 1,7 4,7l145 39c0,1 1,1 1,1 3,0 5,-2 6,-5 0,-3 -1,-6 -4,-7l-32 -8c1,-7 0,-14 -2,-22 -9,-28 -39,-51 -65,-51 -21,0 -35,14 -35,34l13 4c3,0 5,4 4,7 -1,2 -3,4 -6,4z"/>
    <path class="fil2" d="M3198 2009c3,0 5,-1 7,-2 14,-8 33,-13 52,-13 8,0 13,-6 13,-13 0,-7 -5,-13 -13,-13 -21,0 -43,5 -60,14l-431 -95c-1,0 -2,0 -3,0 -6,0 -11,4 -13,10 -1,7 3,14 10,15l435 96c1,1 2,1 3,1z"/>
    <path class="fil2" d="M2177 1758c1,11 15,12 15,12l23 28 0 11c1,0 2,0 2,0l30 -26 60 1c0,0 1,0 1,-1l216 -191c1,-1 1,-2 1,-2l0 -52 39 -33 63 -4 60 16 15 30c0,1 1,2 1,2l510 136 1 0 73 -7 50 14 11 15 1 0c6,0 7,-5 8,-9 6,-2 8,-8 8,-10 5,-1 9,-3 11,-7 0,-1 1,-2 1,-3l-16 -29c0,-1 -1,-1 -1,-1l-73 -21c-1,0 -1,0 -1,0l-83 2 -464 -123 -29 -36c-1,0 -1,-1 -2,-1l-80 -25c0,0 -1,0 -1,0 0,0 0,0 0,0l-83 10c-1,0 -2,0 -2,0l-257 225 -91 6c-1,0 -2,0 -2,1l-45 39c0,1 1,2 1,2 7,8 20,23 29,31zm13 -3l0 0 32 -28c0,-1 1,-1 2,-2l72 -6 214 -184c2,-2 5,-2 7,0 1,2 1,5 -1,7l-216 185c0,0 -1,1 -2,1l-72 6 -31 28c0,1 -2,1 -3,1 -1,0 -2,0 -3,-1 -1,-2 -1,-5 1,-7z"/>
    <path class="fil2" d="M2626 1390l-1 0 -100 10c0,0 -1,1 -1,1l-82 73c0,0 -1,2 0,3 0,1 1,1 2,2l41 11c0,0 0,0 1,0 0,0 1,0 1,-1l53 -45 90 -10 82 24 34 41c1,0 1,1 2,1l454 121c0,0 1,0 1,0l0 0 82 -3 78 21 16 29 1 -1 32 -24 0 -8 -19 -38c0,0 -1,-1 -2,-1l-95 -25c0,0 -1,0 -1,0l-120 2 -394 -106 -37 -44c0,0 -1,-1 -2,-1l-116 -32c0,0 0,0 0,0z"/>
    <path class="fil2" d="M2339 1872l-24 -2 -27 23 19 16 2 -1c0,0 0,-1 0,-1l4 -3c5,-4 10,-5 16,-5 11,0 21,7 25,17l1 1c0,0 0,-1 0,-1l5 -4 5 -53c0,0 0,-1 1,-1l30 -26c4,-3 9,-5 14,-5 12,0 22,7 26,18l0 0 6 -5 5 -52c0,-1 0,-1 1,-2l29 -25c15,-9 33,-2 39,13 0,0 0,0 1,1l5 -5 1 -5 0 -114c-3,-2 -7,-2 -10,-2 -12,3 -24,23 -25,44 -1,8 0,14 2,20l14 10c1,1 2,3 1,4 -1,2 -2,3 -4,3l-24 -2 -26 23c-1,0 -1,0 -1,0l-11 10c-2,1 -4,2 -6,0 -1,-1 -1,-2 -1,-3 0,-1 0,-2 1,-3l19 -16c-3,-14 -10,-21 -19,-19 -13,2 -24,22 -26,44 0,7 1,14 2,19l14 10c1,1 2,3 1,5 0,1 -2,2 -3,2l-24 -2 -25 21c0,0 0,1 -1,1l-14 12c-2,2 -4,2 -6,0 -1,-1 -1,-2 -1,-3 0,0 0,0 1,0 0,-1 0,-1 1,-2l19 -17c-3,-13 -10,-21 -20,-19 -12,3 -24,22 -25,44 -1,7 0,14 2,20l14 10c1,0 2,3 1,4 0,2 -2,3 -4,3z"/>
    <path class="fil2" d="M2656 2070c26,-20 79,-61 89,-115 0,-1 -1,-2 -1,-2 -24,-20 -71,-39 -123,-39 -36,0 -86,9 -120,54 -1,1 -1,2 0,3 10,26 32,75 69,102 1,1 1,1 2,1 0,0 1,0 2,-1 6,-3 18,-8 33,-8 13,0 26,4 38,12 0,0 1,0 2,0 0,0 1,0 1,0 3,-2 5,-4 8,-7z"/>
    <path class="fil2" d="M2522 2243l-39 -10 -18 13c-1,1 -2,1 -3,1 -1,-1 -1,-2 -1,-3l0 -2c1,-36 -7,-65 -21,-79 -9,-10 -20,-12 -32,-8 -1,10 -2,16 -5,20 -3,5 -11,8 -13,9 0,0 -1,0 -1,0l-11 -3c-20,29 -33,74 -34,116 -1,8 0,19 1,25l25 -3c5,0 9,4 9,8 0,5 -4,9 -9,9l-23 0c0,0 -1,0 -1,0l-44 33 -1 3 1 -2 47 28 3 -2c0,-1 1,-1 1,-1 0,0 7,-4 18,-4 14,0 30,7 46,20 3,3 5,5 7,6 0,0 0,0 0,1 8,5 18,5 26,-1 22,-16 35,-67 27,-113 0,-1 0,-3 1,-3l43 -32 1 -26z"/>
    <path class="fil2" d="M2373 2407c0,0 -1,0 -1,0l-29 20c0,0 0,0 0,1l-1 113c0,0 1,1 1,1 0,0 0,0 1,0 0,0 0,0 1,0l37 -26c0,0 0,-1 0,-2 -8,-17 -12,-41 -12,-69 1,-12 2,-24 4,-37 0,0 0,-1 -1,-1z"/>
    <path class="fil2" d="M2491 2439c0,0 0,0 0,0 0,0 1,0 1,0l18 -13c1,0 1,-1 1,-1l0 -112c0,-1 0,-1 -1,-2 0,0 -1,0 -1,0l-20 14c0,0 -1,1 0,2 6,16 8,36 8,59 -1,17 -3,34 -7,51 0,1 0,1 1,2z"/>
    <path class="fil2" d="M2428 2472c0,0 -1,0 -1,0l-15 20c-1,0 -1,1 0,2 0,0 0,0 1,0 0,0 0,0 0,0l21 -14c0,-1 0,-1 0,-1 0,-1 0,-1 0,-1l-5 -6c0,0 0,0 -1,0z"/>
    <path class="fil2" d="M2445 2460c0,0 0,0 0,1l3 6c1,1 1,1 1,1 1,0 1,0 1,0 0,0 0,0 1,0l19 -14c1,0 1,-1 1,-2 -1,0 -2,-1 -2,0l-23 7c0,0 -1,0 -1,1z"/>
    <path class="fil2" d="M2397 2102c-1,0 -1,0 -2,1l-36 28c0,1 -1,2 -1,3 0,1 1,1 2,2l20 11c0,1 1,1 1,1 1,0 2,0 2,-1l22 -17 22 3c0,0 0,0 0,0 0,0 1,0 1,0l21 -11c1,0 2,-1 2,-3 0,-1 -1,-2 -2,-2l-52 -15c0,0 0,0 0,0z"/>
    <path class="fil2" d="M2438 2106c0,0 1,0 2,-1 4,-5 5,-11 3,-16 -2,-5 -8,-8 -16,-8 -4,0 -9,1 -13,3 -5,2 -9,4 -12,8 0,0 0,1 0,2 0,1 1,2 2,2l33 10c0,0 0,0 1,0z"/>
    <path class="fil2" d="M2344 1458c1,0 2,0 3,-1l32 -29 24 7c3,1 5,0 6,-3 0,-2 -1,-4 -3,-5l-27 -8c-2,0 -3,0 -4,1l-34 31c-2,1 -2,4 0,6 1,1 2,1 3,1z"/>
    <path class="fil2" d="M2431 1381l29 7c2,0 5,-1 6,-3 0,-3 -1,-5 -4,-5l-31 -8c-2,0 -3,0 -4,1l-30 27 5 7 29 -26z"/>
    <path class="fil2" d="M2487 1330l21 6c3,0 5,-1 6,-3 0,-3 -1,-5 -3,-6l-24 -6c-1,0 -3,0 -4,1l-32 28 7 6 29 -26z"/>
    <path class="fil2" d="M2545 1277l14 4c2,1 5,-1 6,-3 0,-2 -1,-5 -4,-5l-16 -5c-2,0 -3,0 -4,1l-32 29 7 6 29 -27z"/>
    <polygon class="fil2" points="2674,1233 2703,1241 2712,1235 2712,1234 2674,1224 "/>
    <path class="fil2" d="M2755 1263l5 -7 58 16 8 -7 -67 -18c-1,0 -3,0 -4,2l-7 9c-2,1 -1,4 1,6 1,1 4,1 6,-1z"/>
    <path class="fil2" d="M2866 1293l9 -6 53 14 9 -7 -62 -16c-2,0 -3,0 -4,1l-10 7c-2,2 -2,4 -1,6 2,2 4,3 6,1z"/>
    <path class="fil2" d="M2975 1321l8 -5 62 16 4 -8 -66 -17c-1,-1 -2,0 -4,1l-9 7c-2,1 -2,4 -1,6 1,2 4,2 6,0z"/>
    <path class="fil2" d="M3084 1352l9 -7 52 14 9 -7 -60 -16c-2,0 -3,0 -4,1l-11 8c-2,1 -2,4 -1,6 2,2 4,2 6,1z"/>
    <path class="fil2" d="M3188 1378l7 -6 9 3 0 -9 -10 -3c-1,0 -3,0 -4,1l-8 8c-2,1 -2,4 0,6 1,2 4,2 6,0z"/>
    <path class="fil2" d="M3319 1335l-45 -15c-1,0 -2,-1 -3,0l-53 14c-3,1 -5,4 -4,7 1,3 4,5 7,4l51 -14 41 14 9 17 8 -9 -8 -15c-1,-1 -2,-2 -3,-3z"/>
    <path class="fil2" d="M3213 1279l52 -13 40 14 12 21 0 -6 6 -7 -9 -16c-1,-1 -2,-2 -3,-2l-44 -15c-1,-1 -3,-1 -4,-1l-52 14c-3,1 -5,4 -5,7 1,3 4,5 7,4z"/>
    <path class="fil2" d="M2567 1156l14 -13 39 1 49 13 11 20 3 -23 -3 -7c-1,-1 -3,-2 -5,-3l-52 -14c-1,-1 -1,-1 -2,-1l-42 0c-2,0 -4,0 -5,2l-17 15c-3,2 -3,7 0,10 3,3 7,3 10,0z"/>
    <path class="fil2" d="M2574 1096l15 -13 38 0 49 14 3 5 1 -2 0 -17 -50 -14c0,0 -1,0 -1,0l-43 -1c-2,0 -4,1 -5,2l-16 15c-3,3 -4,7 -1,10 3,3 7,4 10,1z"/>
    <path class="fil2" d="M2239 1384c2,0 4,0 6,-2l9 -10 77 0c4,0 7,-3 7,-7 0,-4 -3,-7 -7,-7l-80 -1c-2,0 -4,1 -5,3l-12 12c-3,3 -3,8 0,10 2,2 4,2 5,2z"/>
    <path class="fil2" d="M2239 1456c2,0 4,-1 6,-2l9 -10 77 0c0,0 0,0 0,0 4,0 7,-3 7,-7 0,-4 -3,-7 -7,-7l-80 -1c-2,0 -4,1 -5,2l-12 13c-3,3 -3,7 0,10 2,1 4,2 5,2z"/>
    <path class="fil2" d="M3071 2261c-1,0 -1,-1 -2,-1 -1,-2 -2,-4 -1,-7 0,-4 4,-7 8,-7 0,0 1,0 2,1l23 4c0,-5 0,-9 0,-14 -5,-54 -42,-103 -91,-123l-9 17c0,1 -1,2 -3,2l0 -1c-1,0 -2,0 -2,-1 -1,-1 0,-2 0,-3 0,0 0,0 0,-1 1,-1 0,-2 0,-3 -1,-1 -2,-2 -3,-2l-21 -5c-2,0 -5,1 -5,4 0,1 -1,2 -3,2 -1,0 -2,0 -3,-2l-4 -15c-53,3 -96,44 -104,99l33 6c2,1 4,2 5,4 1,2 2,4 1,6 0,2 -1,4 -3,5 -1,1 -2,1 -2,1l-102 -19 12 40 1 0 50 9c1,0 2,1 2,2 14,64 68,113 126,113 44,0 81,-27 98,-71 0,-1 2,-1 3,-1l65 12c9,-13 21,-29 24,-34l-95 -17z"/>
    <path class="fil2" d="M4482 663l0 129 -163 0 -22 60 185 0 0 122 -230 0 -22 60 252 0 0 122 -297 0 -23 60 320 0 0 122 -365 0 -22 60 387 0 0 123 -432 0 -22 59 454 0 0 122 -499 0 -22 60 521 0 0 123 -566 0 -22 59 588 0 0 123 -633 0 -22 59 655 0 0 71c0,18 -1,35 -2,52l-698 0 -22 59 718 0c-3,42 -7,82 -13,123l-751 0 -22 59 764 0c-7,42 -16,83 -26,123l-783 0 -22 60 789 0c-13,41 -26,82 -41,122l-793 0 -22 60 792 0c-18,41 -38,82 -58,122l-779 0 -22 60 768 0c-24,42 -49,82 -76,122l-737 0 -22 60 716 0c-32,42 -66,83 -101,122l-660 0 -22 60 625 0c-44,43 -90,84 -138,122l-700 0 0 -1037c0,-1 0,-2 -1,-2l-346 -64c0,0 -1,0 -1,1 -1,0 -1,0 -1,1l0 1101 -286 0 0 -1010c0,1 -1,1 -2,1 -6,0 -9,-6 -7,-12 1,-4 5,-8 9,-10l0 -44 -165 115 0 960 -627 0c-47,-38 -93,-79 -137,-122l687 0 -22 -60 -722 0c-35,-39 -69,-80 -101,-122l778 0 -22 -60 -799 0c-27,-40 -52,-80 -76,-122l830 0 -23 -60 -840 0c-20,-40 -40,-81 -57,-122l852 0 -22 -60 -854 0c-15,-40 -29,-81 -41,-122l850 0 -22 -60 -844 0c-10,-40 -19,-81 -26,-123l825 0 -22 -59 -812 0c-6,-41 -10,-81 -13,-123l780 0 -22 -59 -760 0c-1,-17 -2,-34 -2,-52l0 -71 717 0 -22 -59 -695 0 0 -123 650 0 -22 -59 -628 0 0 -123 583 0 -23 -60 -560 0 0 -122 515 0 -22 -59 -493 0 0 -123 448 0 -22 -60 -426 0 0 -122 381 0 -22 -60 -359 0 0 -122 314 0 -22 -60 -292 0 0 -122 247 0 -22 -60 -225 0 0 -129c0,-66 -53,-120 -119,-120l0 1654c0,1004 816,1821 1820,1821 1004,0 1820,-817 1820,-1821l0 -1653c-66,0 -119,53 -119,119zm-1381 1848l0 0c8,0 14,6 14,13 1,8 -4,14 -12,14 -7,0 -13,-6 -14,-14 -1,-7 5,-13 12,-13zm-215 -7l0 -30c0,0 1,-1 1,-1l180 31c1,0 1,1 1,1l0 28c0,0 0,1 -1,1 -1,0 -1,0 -2,0 -2,-5 -7,-9 -12,-10 -10,-3 -23,1 -33,10 0,1 -1,1 -2,1 -4,4 -10,6 -16,6 -4,0 -8,-1 -12,-3 -4,-2 -7,-5 -9,-9 -2,-5 -2,-11 0,-16 3,-5 8,-8 14,-8 3,0 5,0 7,1 3,2 6,4 7,7 0,3 0,6 -1,8 -2,3 -5,5 -8,5 -2,0 -3,0 -5,-1 -1,-1 -3,0 -3,1 -1,1 -1,2 0,3 0,0 0,1 1,1 3,1 7,2 10,1l1 0c4,-2 7,-4 9,-7 2,-4 2,-8 1,-13 -2,-4 -5,-7 -9,-9 -3,-2 -6,-3 -10,-3 -6,0 -12,3 -16,8 0,0 -1,0 -1,0 -1,0 -1,0 -2,-1 -3,-7 -11,-11 -19,-11 -2,0 -4,0 -6,1 -4,1 -8,4 -10,8 -2,4 -3,8 -2,12 1,2 2,3 2,4 4,5 11,7 17,5 1,0 1,0 1,-1 1,-1 1,-1 1,-2 -1,-1 -3,-2 -4,-2 -1,1 -2,1 -2,1 -4,0 -8,-3 -9,-6 -1,-3 0,-6 1,-9 1,-2 4,-4 7,-5 1,-1 3,-1 4,-1 7,0 13,4 15,10 2,6 1,12 -2,17 -3,3 -7,6 -11,7 -3,1 -5,1 -8,1 -11,0 -21,-6 -24,-16 -1,0 -1,0 -1,-1 -2,-9 -11,-17 -21,-18 -1,0 -2,-1 -3,-1 -5,0 -10,2 -15,6 0,0 -1,0 -1,0 0,0 -1,-1 0,-1zm-44 -33l0 0c8,0 14,6 15,14 1,7 -5,13 -12,13 -8,0 -14,-6 -15,-13 0,-8 5,-14 12,-14zm-452 95l0 0c0,-1 0,-1 1,-1l98 -66 -1 29c0,0 0,0 0,0 -2,-2 -6,-2 -8,-1 -1,0 -2,0 -2,1 -6,3 -11,11 -13,19l0 1 0 1c-2,7 -7,14 -13,16 -1,1 -3,1 -4,1 -2,0 -4,-1 -5,-3 -1,-3 -2,-7 -1,-11 2,-5 4,-9 8,-11 1,0 1,0 2,0 1,0 2,1 3,2 1,1 1,3 0,6 0,2 -2,5 -4,6 0,0 -1,0 -1,0 -1,0 -2,1 -3,3 0,1 0,1 0,2 1,1 1,1 2,1 4,0 8,-3 10,-8 1,-1 1,-2 1,-4 1,-4 1,-7 0,-10 -2,-3 -4,-5 -7,-5 -1,0 -2,1 -4,1 -4,2 -9,7 -11,14 -2,-3 -6,-4 -9,-2 -2,1 -4,2 -6,4 -3,2 -5,6 -5,10 -1,3 -1,7 0,10 1,2 3,4 6,4l0 0c2,0 5,-1 7,-3 0,-1 0,-1 0,-1 1,-1 1,-2 0,-3 0,-2 -2,-2 -3,-1 -1,1 -1,1 -2,2 -1,0 -1,0 -1,0 -1,0 -2,-1 -2,-2 -1,-1 -1,-4 0,-6 0,-2 1,-4 2,-6 2,-1 3,-2 4,-2 3,-1 5,0 6,2 2,4 2,8 0,12 -1,4 -2,7 -5,9 -1,3 -4,4 -6,5 -3,1 -6,1 -8,-1 0,0 0,0 0,0 -6,-6 -14,-6 -20,-1 -2,2 -5,5 -6,9l0 -22zm-30 21l0 0c2,-6 8,-10 13,-10 5,0 8,4 6,10 -1,5 -7,9 -12,9 -6,0 -8,-4 -7,-9zm421 1311l0 0c-234,0 -457,-47 -659,-133l1318 0c-203,86 -425,133 -659,133zm785 -193l-1570 0c-70,-36 -136,-77 -199,-122l1968 0c-63,45 -129,86 -199,122z"/>
    <path class="fil2" d="M3018 0c-85,0 -166,23 -237,66 -71,-43 -152,-66 -237,-66l-1583 0 0 120 1583 0c73,0 143,23 201,66l36 27 36 -26c58,-44 128,-67 201,-67l1583 0 0 -120 -1583 0z"/>
    <path class="fil2" d="M672 4914c-2,-3 -6,-7 -15,-7 -2,-1 -4,-1 -6,-1l-128 0c-13,0 -22,7 -23,17l-146 453 -13 43 -12 -44 -157 -452c-3,-10 -10,-17 -21,-17l-133 0c-8,0 -13,4 -15,7 -2,3 -5,9 -2,18l238 621c18,48 53,73 100,73l3 0c47,0 80,-24 99,-71l232 -623c3,-8 1,-14 -1,-17z"/>
    <path class="fil2" d="M1146 4958c-50,-40 -119,-60 -207,-60 -90,0 -171,20 -242,58 -8,4 -11,9 -12,13 -2,6 -1,12 3,18l44 87c5,12 14,13 18,13 5,0 10,-2 14,-5 47,-27 103,-41 170,-41 86,0 128,35 128,106l0 33c-38,-16 -92,-24 -162,-24 -79,0 -146,19 -197,56 -57,42 -86,101 -86,173 0,78 29,137 87,178 48,33 111,51 187,51l229 0c31,0 56,-10 75,-29 19,-19 29,-45 29,-78l0 -369c0,-79 -26,-140 -78,-180zm-84 363l0 155 -154 0c-87,0 -129,-31 -129,-95 0,-58 43,-86 133,-86 63,0 113,9 150,26z"/>
    <path class="fil2" d="M1776 5261c-33,-28 -87,-53 -167,-76 -63,-18 -103,-33 -122,-47 -19,-12 -28,-27 -28,-49 0,-13 0,-56 96,-56 64,0 117,19 156,56 4,5 8,7 13,7 7,0 13,-5 17,-8 0,0 0,0 1,-1l69 -71c3,-3 10,-12 -1,-28 -49,-64 -134,-96 -253,-96 -76,0 -139,16 -186,50 -51,36 -77,86 -77,148 0,63 22,114 67,153 38,31 101,60 187,86 52,15 85,28 102,38 21,13 31,29 31,50 0,21 -11,37 -32,48 -22,12 -50,19 -86,19 -81,0 -147,-25 -195,-72 -4,-6 -10,-8 -13,-8 -6,0 -12,3 -16,9l-74 82c-1,1 -2,2 -2,3 -3,8 -2,16 5,24 64,71 161,106 287,106 79,0 145,-17 197,-51 57,-40 87,-94 87,-163 0,-65 -21,-117 -63,-153z"/>
    <path class="fil2" d="M2364 5261c-33,-28 -87,-53 -166,-76 -64,-18 -104,-33 -123,-47 -19,-12 -28,-27 -28,-49 0,-13 0,-56 97,-56 63,0 116,19 155,56 4,5 8,7 13,7 7,0 13,-5 17,-8 0,0 0,0 1,-1l69 -71c3,-3 10,-12 -1,-28 -49,-64 -134,-96 -253,-96 -76,0 -139,16 -186,50 -51,36 -77,86 -77,148 0,63 22,114 67,153 38,31 101,60 187,86 52,15 85,28 102,38 21,13 31,29 31,50 0,21 -10,37 -32,48 -22,12 -50,19 -86,19 -81,0 -147,-25 -194,-72 -5,-6 -11,-8 -14,-8 -6,0 -11,3 -16,9l-74 82c-1,1 -2,2 -2,3 -5,12 2,20 5,24 64,71 161,106 287,106 79,0 145,-17 197,-51 58,-40 87,-94 87,-163 0,-65 -21,-117 -63,-153z"/>
    <path class="fil2" d="M2787 4891c-98,0 -179,33 -242,98 -65,68 -99,159 -99,271 0,111 35,202 103,272 63,64 142,96 233,96 101,0 184,-33 249,-98 66,-69 100,-160 100,-272 0,-112 -35,-203 -103,-270 -64,-65 -145,-97 -241,-97zm-127 203l0 0c32,-35 73,-53 125,-53 52,0 95,18 127,54 0,0 0,0 0,0 36,38 54,93 54,163 0,73 -18,130 -54,168 -33,35 -74,53 -127,53 -49,0 -90,-19 -123,-55 -36,-41 -53,-95 -53,-166 0,-71 17,-126 51,-164z"/>
    <path class="fil2" d="M3733 4907c-2,-1 -5,-1 -7,-1l-121 0c-13,0 -21,8 -21,20l0 412c0,47 -9,80 -28,101 -20,24 -53,36 -102,36 -86,0 -128,-44 -128,-133l0 -413c0,-17 -11,-23 -21,-23l-122 0c-14,0 -22,9 -22,23l0 433c0,84 26,150 78,196 52,44 123,66 213,66 91,0 163,-22 214,-67 55,-47 83,-114 83,-198l0 -433c0,-11 -6,-18 -16,-19z"/>
    <path class="fil2" d="M4209 5342c46,-13 84,-38 113,-75 32,-41 48,-89 48,-145 0,-72 -26,-128 -78,-167 -44,-31 -101,-48 -169,-48l-236 0c-53,0 -82,29 -82,83l0 605c0,14 9,19 17,19l123 0c11,0 18,-8 18,-19l0 -235 79 0 187 244c3,6 10,10 18,10l138 0c9,0 13,-4 15,-7 2,-3 3,-9 -2,-18l-189 -247zm2 -212l0 0c0,31 -8,54 -25,67 -19,14 -52,21 -95,21l-128 0 0 -169 135 0c76,0 113,27 113,81z"/>
    <path class="fil2" d="M4869 4958c-50,-40 -119,-60 -207,-60 -89,0 -171,20 -241,58 -7,3 -11,7 -13,13 -1,6 0,12 3,18l44 87c6,12 14,13 18,13 5,0 10,-2 14,-5 48,-27 103,-41 170,-41 86,0 128,35 128,106l0 33c-38,-16 -91,-24 -161,-24 -80,0 -147,19 -198,56 -57,42 -86,101 -86,173 0,78 30,138 87,178 48,33 111,51 187,51l229 0c31,0 56,-10 75,-29 19,-19 29,-46 29,-78l0 -369c0,-79 -26,-140 -78,-180zm-84 363l0 155 -153 0c-88,0 -130,-31 -130,-95 0,-58 44,-86 133,-86 63,0 113,9 150,26z"/>
    <path class="fil2" d="M5499 5261c-33,-28 -87,-53 -167,-76 -63,-18 -103,-33 -122,-47 -19,-12 -28,-27 -28,-49 0,-13 0,-56 97,-56 64,0 116,19 155,56 4,5 8,7 13,7 7,0 13,-5 17,-8 0,0 1,0 1,-1l69 -71c3,-3 10,-12 -1,-28 -48,-64 -133,-96 -252,-96 -77,0 -140,16 -187,50 -51,36 -77,86 -77,148 0,63 22,114 67,153 38,31 101,60 187,86 52,15 85,28 102,38 21,13 31,29 31,50 0,21 -10,37 -32,48 -22,12 -50,19 -86,19 -81,0 -147,-25 -194,-72 -5,-6 -11,-8 -14,-8 -6,0 -11,3 -16,9l-74 82c-1,1 -2,2 -2,3 -5,12 2,20 5,24 65,71 161,106 286,106 80,0 146,-17 198,-51 58,-40 87,-94 87,-163 0,-65 -21,-117 -63,-153z"/>
    <path class="fil2" d="M868 4406c-22,0 -38,19 -38,46l0 193c0,41 -39,81 -80,82l-15 0c-41,0 -79,-40 -79,-82l0 -193c0,-27 -16,-46 -38,-46 -15,0 -27,12 -27,26 0,10 5,18 13,23l0 191c0,69 62,133 131,133l15 0c69,0 132,-64 132,-134l0 -190c8,-5 13,-13 13,-23 0,-14 -12,-26 -27,-26z"/>
    <path class="fil2" d="M1252 4432c0,-14 -12,-26 -27,-26 -22,0 -38,19 -38,46l0 205 0 9 -182 -240c-6,-7 -16,-20 -35,-20 -15,0 -27,12 -27,26 0,10 5,18 13,23l0 275c-7,5 -13,13 -13,23 0,14 12,26 27,26 23,0 39,-19 39,-45l0 -206 -1 -8 186 241c9,12 19,18 31,18 15,0 27,-12 27,-26 0,-10 -5,-19 -13,-23l0 -275c8,-5 13,-13 13,-23z"/>
    <path class="fil2" d="M1342 4406c-14,0 -26,12 -26,26l0 321c0,14 12,26 26,26 14,0 26,-12 26,-26l0 -321c0,-14 -12,-26 -26,-26z"/>
    <path class="fil2" d="M1716 4406c-16,0 -30,11 -37,27l-93 242 -2 7 -95 -249c-6,-16 -20,-27 -37,-27 -16,0 -29,12 -29,27 0,13 8,23 20,25l116 301c4,12 14,20 25,20 12,0 22,-8 25,-19l116 -302c13,-2 20,-12 20,-25 0,-15 -12,-27 -29,-27z"/>
    <path class="fil2" d="M2035 4727l-186 0 0 -104 146 0c15,0 26,-11 26,-26 0,-14 -11,-26 -26,-26l-146 0 0 -112 176 0c15,0 26,-12 26,-27 0,-14 -11,-26 -26,-26l-214 0c-16,0 -28,12 -28,26 0,10 6,18 13,23l0 275c-7,5 -13,13 -13,23 0,14 12,26 28,26l224 0c14,0 26,-12 26,-27 0,-14 -12,-25 -26,-25z"/>
    <path class="fil2" d="M2365 4724l-63 -107c40,-17 67,-58 67,-101 0,-60 -49,-110 -109,-110l-135 0c-15,0 -27,12 -27,26 0,10 5,18 13,23l0 276c-8,4 -13,13 -13,22 0,15 12,26 27,26 23,0 38,-18 38,-45l0 -109 84 0 74 130c8,14 23,24 37,24 18,0 32,-13 32,-29 0,-14 -12,-26 -25,-26zm-48 -208l0 0c0,31 -26,56 -57,56l-97 0 0 -113 97 0c31,0 57,25 57,57z"/>
    <path class="fil2" d="M2555 4569c-50,-16 -83,-33 -83,-62 0,-35 38,-51 74,-51 22,0 47,9 63,22 6,4 11,6 18,6 14,0 26,-12 26,-25 0,-8 -4,-16 -11,-22 -27,-21 -61,-33 -98,-33 -60,0 -124,36 -124,102 0,66 63,95 111,111 49,17 87,32 87,65 0,31 -40,47 -80,47 -27,0 -54,-8 -72,-20 -4,-3 -10,-7 -19,-7 -16,0 -25,13 -25,26 0,9 4,17 12,22 29,19 69,31 104,31 63,0 132,-31 132,-100 0,-72 -69,-96 -115,-112z"/>
    <path class="fil2" d="M2740 4406c-14,0 -26,12 -26,26l0 321c0,14 12,26 26,26 15,0 26,-12 26,-26l0 -321c0,-14 -11,-26 -26,-26z"/>
    <path class="fil2" d="M2977 4406l-120 0c-16,0 -28,12 -28,26 0,10 6,18 13,23l0 275c-7,5 -13,13 -13,23 0,14 12,26 28,26l121 0c106,-1 164,-97 164,-187 0,-90 -58,-186 -165,-186zm113 186l0 0c0,67 -39,135 -113,135l-82 0 0 -268 82 0c74,1 113,68 113,133z"/>
    <path class="fil2" d="M3451 4727l-114 -304c-4,-12 -15,-19 -28,-19 -13,0 -24,7 -28,19l-113 303c-12,4 -20,14 -20,26 0,15 13,27 29,27 20,0 34,-17 40,-32l24 -66 136 0 25 66c6,15 19,32 40,32 16,0 28,-12 28,-27 0,-12 -8,-22 -19,-25zm-92 -98l-99 0 46 -122 3 -10 50 132z"/>
    <path class="fil2" d="M3650 4406l-121 0c-15,0 -27,12 -27,26 0,10 5,18 13,23l0 275c-8,5 -13,13 -13,23 0,14 12,26 27,26l121 0c107,-1 164,-97 164,-187 0,-90 -57,-186 -164,-186zm112 186l0 0c0,67 -39,135 -112,135l-83 0 0 -268 83 0c73,1 112,68 112,133z"/>
    <path class="fil2" d="M4109 4727l-186 0 0 -104 146 0c15,0 26,-11 26,-26 0,-14 -11,-26 -26,-26l-146 0 0 -112 176 0c15,0 26,-12 26,-27 0,-14 -12,-26 -26,-26l-215 0c-15,0 -27,12 -27,26 0,10 5,18 14,23l0 275c-8,5 -14,13 -14,23 0,14 12,26 27,26l225 0c14,0 26,-12 26,-27 0,-14 -12,-25 -26,-25z"/>
    <path class="fil2" d="M4486 4406l-120 0c-16,0 -28,12 -28,26 0,10 5,18 14,23l0 275c-9,5 -14,13 -14,23 0,14 12,26 28,26l120 0c107,-1 165,-97 165,-187 0,-90 -58,-186 -165,-186zm113 186l0 0c0,67 -39,135 -113,135l-82 0 0 -268 82 0c74,1 113,68 113,133z"/>
    <path class="fil2" d="M4945 4727l-186 0 0 -104 147 0c14,0 26,-11 26,-26 0,-14 -12,-26 -26,-26l-147 0 0 -112 176 0c15,0 27,-12 27,-27 0,-14 -12,-26 -27,-26l-214 0c-15,0 -27,12 -27,26 0,10 5,18 13,23l0 275c-8,5 -13,13 -13,23 0,14 12,26 27,26l224 0c14,0 26,-12 26,-27 0,-14 -11,-25 -26,-25z"/>
   </g>
  </g>
 </g>
</svg>
